<?xml version="1.0" standalone="no"?><!DOCTYPE svg PUBLIC "-//W3C//DTD SVG 1.1//EN" "http://www.w3.org/Graphics/SVG/1.1/DTD/svg11.dtd"><svg t="1566959819859" class="icon" viewBox="0 0 1024 1024" version="1.1" xmlns="http://www.w3.org/2000/svg" p-id="2029" xmlns:xlink="http://www.w3.org/1999/xlink" width="200" height="200"><defs><style type="text/css"></style></defs><path d="M616 706.6c-2.9 0-5.9-0.5-8.8-1.6L285.3 584.6c-12.9-4.8-19.5-19.2-14.7-32.2 4.8-12.9 19.2-19.5 32.2-14.7l321.9 120.4c12.9 4.8 19.5 19.2 14.7 32.2-3.7 10.1-13.3 16.3-23.4 16.3z" fill="#1296db" p-id="2030"></path><path d="M616 826.7c-3.9 0-7.7-0.9-11.3-2.7l-321-161.9h-97.6c-13.8 0-25-11.2-25-25V380.2c0-13.8 11.2-25 25-25h97.6l321-161.8c7.7-3.9 17-3.5 24.4 1 7.4 4.6 11.9 12.6 11.9 21.3v586c0 8.7-4.5 16.7-11.9 21.3-4 2.5-8.5 3.7-13.1 3.7zM211.2 612.1h78.5c3.9 0 7.8 0.9 11.3 2.7l290 146.3V256.3L301 402.5c-3.5 1.8-7.3 2.7-11.3 2.7h-78.5v206.9z" fill="#1296db" p-id="2031"></path><path d="M175.8 634.4h-73.4c-13.8 0-25-11.2-25-25V407.9c0-13.8 11.2-25 25-25h73.4c13.8 0 25 11.2 25 25v201.5c0 13.8-11.2 25-25 25z m-48.4-50h23.4V432.9h-23.4v151.5zM869.9 777.6c-3.8 0-7.6-0.9-11.2-2.7-12.3-6.2-17.3-21.2-11.1-33.6 36.5-72.5 54.9-150.8 54.9-232.7 0-75.9-16.1-149.3-47.8-217.9-5.8-12.5-0.3-27.4 12.2-33.2 12.5-5.8 27.4-0.3 33.2 12.2 34.8 75.3 52.4 155.7 52.4 238.9 0 89.7-20.3 175.6-60.3 255.1-4.4 8.9-13.2 13.9-22.3 13.9zM795.5 667.8c-2.1 0-4.3-0.3-6.4-0.8-13.3-3.5-21.3-17.2-17.7-30.6 11.6-43.6 17.5-88.7 17.5-134 0-48.2-6.6-96.1-19.7-142.2-3.8-13.3 4-27.1 17.3-30.9 13.3-3.8 27.1 4 30.9 17.3 14.3 50.6 21.5 103 21.5 155.8 0 49.6-6.4 99-19.1 146.8-3.1 11.2-13.2 18.6-24.3 18.6zM453.7 845.8c-3.8 0-7.6-0.9-11.2-2.7l-159.6-80.3c-6.1-3.1-10.6-8.5-12.7-15-2-6.5-1.3-13.5 2-19.5l43.8-79.1c6.7-12.1 21.9-16.4 34-9.8 12.1 6.7 16.4 21.9 9.8 34l-31.2 56.3 114.1 57.4 29.6-58.1c6.3-12.3 21.3-17.2 33.6-10.9 12.3 6.3 17.2 21.3 10.9 33.6L476 832.1c-4.4 8.7-13.2 13.7-22.3 13.7zM289.7 662.1c-13.8 0-25-11.2-25-25V380.2c0-13.8 11.2-25 25-25s25 11.2 25 25v256.9c0 13.8-11.2 25-25 25zM653.4 879c-34.4 0-62.4-28-62.4-62.4V200.3c0-34.4 28-62.4 62.4-62.4s62.4 28 62.4 62.4v616.3c0 34.4-28 62.4-62.4 62.4z m0-691.1c-6.8 0-12.4 5.6-12.4 12.4v616.3c0 6.8 5.6 12.4 12.4 12.4 6.8 0 12.4-5.6 12.4-12.4V200.3c0-6.8-5.6-12.4-12.4-12.4z" fill="#1296db" p-id="2032"></path></svg>