<?xml version="1.0" standalone="no"?><!DOCTYPE svg PUBLIC "-//W3C//DTD SVG 1.1//EN" "http://www.w3.org/Graphics/SVG/1.1/DTD/svg11.dtd"><svg t="1566953434109" class="icon" viewBox="0 0 1024 1024" version="1.1" xmlns="http://www.w3.org/2000/svg" p-id="19542" xmlns:xlink="http://www.w3.org/1999/xlink" width="200" height="200"><defs><style type="text/css"></style></defs><path d="M260.8 828.8H784V195.2H257.6l-112 121.6h115.2v512z m452.8-601.6H752v569.6H292.8V227.2h420.8z m-452.8 57.6h-43.2l43.2-46.4v46.4z" fill="#707070" p-id="19543"></path><path d="M528 502.4h137.6v16H528zM444.8 470.4v-16h-88v112h112v-43.2h-16v27.2h-80v-80z" fill="#707070" p-id="19544"></path><path d="M417.6 513.6l-25.6-25.6-11.2 11.2 36.8 36.8 60.8-62.4-11.2-11.2zM528 342.4h137.6v16H528zM468.8 406.4v-41.6h-16v25.6h-80v-80h72v-16h-88v112z" fill="#707070" p-id="19545"></path><path d="M417.6 353.6l-25.6-25.6-11.2 11.2 36.8 36.8 60.8-60.8-11.2-12.8zM528 662.4h137.6v16H528zM452.8 710.4h-80v-81.6h72v-16h-88v113.6h112v-44.8h-16z" fill="#707070" p-id="19546"></path><path d="M417.6 673.6l-25.6-25.6-11.2 11.2 36.8 36.8 60.8-62.4-11.2-11.2z" fill="#707070" p-id="19547"></path></svg>