<?xml version="1.0" standalone="no"?><!DOCTYPE svg PUBLIC "-//W3C//DTD SVG 1.1//EN" "http://www.w3.org/Graphics/SVG/1.1/DTD/svg11.dtd"><svg t="1566953193577" class="icon" viewBox="0 0 1024 1024" version="1.1" xmlns="http://www.w3.org/2000/svg" p-id="14492" xmlns:xlink="http://www.w3.org/1999/xlink" width="200" height="200"><defs><style type="text/css"></style></defs><path d="M993.77664 859.79136c0 29.577216-23.97696 53.552128-53.5552 53.552128L115.490816 913.343488c-29.577216 0-53.554176-23.974912-53.554176-53.552128L61.93664 131.454976c0-29.577216 23.97696-53.554176 53.554176-53.554176l824.730624 0c29.57824 0 53.5552 23.97696 53.5552 53.554176L993.77664 859.79136zM952.81664 156.665856c0-22.352896-18.11968-40.472576-40.472576-40.472576L143.369216 116.19328c-22.351872 0-40.472576 18.11968-40.472576 40.472576l0 677.911552c0 22.351872 18.120704 40.471552 40.472576 40.471552L912.34304 875.04896c22.352896 0 40.472576-18.11968 40.472576-40.471552L952.81664 156.665856 952.81664 156.665856zM295.236608 220.360704c-49.4848 0-89.6 40.1152-89.6 89.6 0 49.4848 40.1152 89.6 89.6 89.6s89.6-40.1152 89.6-89.6C384.836608 260.475904 344.721408 220.360704 295.236608 220.360704zM343.876608 309.960704c0 26.863616-21.778432 48.64-48.64 48.64-26.863616 0-48.64-21.776384-48.64-48.64 0-26.863616 21.776384-48.64 48.64-48.64C322.0992 261.320704 343.876608 283.097088 343.876608 309.960704zM167.40864 698.84928l172.544-130.048 93.696 96.256 232.448-233.216 218.112 218.88 27.648-30.72-245.248-246.016-232.96 230.656-90.112-90.112-199.68 150.528L167.40864 698.84928zM898.302976 683.48928 573.392896 683.48928l0 40.96 324.91008 0L898.302976 683.48928zM898.302976 777.015296 387.724288 777.015296l0 40.96 510.577664 0L898.302976 777.015296 898.302976 777.015296z" p-id="14493"></path></svg>