<?xml version="1.0" standalone="no"?><!DOCTYPE svg PUBLIC "-//W3C//DTD SVG 1.1//EN" "http://www.w3.org/Graphics/SVG/1.1/DTD/svg11.dtd"><svg t="1566953364232" class="icon" viewBox="0 0 1024 1024" version="1.1" xmlns="http://www.w3.org/2000/svg" p-id="16919" xmlns:xlink="http://www.w3.org/1999/xlink" width="200" height="200"><defs><style type="text/css"></style></defs><path d="M814.81 726.693l-88.117 88.118h-49.748l137.866-137.866v49.748z m0 64.758v23.36h-23.359l23.36-23.36z m0-179.264L612.188 814.811H562.44l216.293-216.294h36.078v13.67z m-100.835-13.67L497.68 814.811h-49.747l216.293-216.294h49.748z m-114.55 0L383.133 814.811h-49.747l216.293-216.294h49.748z m-114.505 0L268.627 814.811h-49.748l216.294-216.294h49.747z m-114.506 0L209.19 759.742v-49.271l111.954-111.954h49.315z m-114.03 0l-47.195 47.196v-47.196h47.196z m558.427-326.04L705.063 382.224h-49.747l159.495-159.495v49.748z m0 64.758v44.989h-44.99l44.99-44.989z m-51.219-128.046L590.558 382.224H540.81l173.035-173.035h49.747z m-114.505 0L476.052 382.224h-49.747l173.034-173.035h49.748z m-114.592 0L361.46 382.224h-49.748l173.035-173.035h49.748z m-114.463 0L246.997 382.224H209.19v-11.896l161.139-161.139h49.747z m-114.506 0l-96.337 96.337v-49.271l47.066-47.066h49.315zM122.672 468.741h778.656V512H122.672v-43.259z" p-id="16920"></path></svg>