<?xml version="1.0" standalone="no"?><!DOCTYPE svg PUBLIC "-//W3C//DTD SVG 1.1//EN" "http://www.w3.org/Graphics/SVG/1.1/DTD/svg11.dtd"><svg t="1567037164037" class="icon" viewBox="0 0 1024 1024" version="1.1" xmlns="http://www.w3.org/2000/svg" p-id="1568" xmlns:xlink="http://www.w3.org/1999/xlink" width="200" height="200"><defs><style type="text/css"></style></defs><path d="M373.709329 592.114714c-33.974965 0-61.44474 27.503553-61.44474 61.382583 0 33.969169 27.469576 61.476719 61.44474 61.476719 26.014362 0 48.009649-16.302947 56.87364-39.107485l-44.621746-22.369234 44.621746-22.246717C421.718979 608.320127 399.723691 592.114714 373.709329 592.114714L373.709329 592.114714 373.709329 592.114714zM660.173706 715.223846c25.952804 0 48.009649-16.270968 56.865645-39.163647l-44.671713-22.280894 44.671713-22.308675c-8.856195-22.864498-30.913041-39.109883-56.865645-39.109883-33.971168 0-61.44614 27.503553-61.44614 61.418558C598.727567 687.720094 626.194744 715.223846 660.173706 715.223846L660.173706 715.223846 660.173706 715.223846zM938.102071 570.899298c0.244434-9.655653 0.270217-19.474996 0.066355-29.328515 2.635813-133.194094-37.007309-245.47177-114.646869-324.726635-37.033092-37.789978-82.066559-66.798511-133.675768-86.559313-8.010569-71.945421-86.157585-128.593214-181.063639-128.593214-94.912249 0-173.043277 56.647993-181.055844 128.593214-51.60721 19.760802-96.638679 48.769334-133.667973 86.559313-77.661346 79.254865-117.312662 191.31329-114.680447 324.109254-0.227646 12.549691-0.153896 24.328106 0.244035 35.844098-20.124556 20.252269-35.887868 50.847525-24.369477 93.776619 8.557798 31.894376 32.160195 55.798169 61.112566 66.257477 14.722018 9.075847 32.004501 14.355867 50.497763 14.477984 36.915172 161.422955 170.942701 271.019049 345.966635 271.019049 174.699953 0 308.757462-109.868109 345.468572-271.388599 1.125437 0.247432 2.304238 0.385738 3.507822 0.385738 23.058167 0 44.26219-8.050742 60.992647-21.45965 21.865575-12.403391 38.969579-33.163515 45.977427-59.2918C981.48126 623.249805 961.018533 590.91153 938.102071 570.899298L938.102071 570.899298zM508.78215 34.481789c70.702064 0 130.050026 35.897462 145.203952 83.877131-44.122485-12.585667-92.343591-19.042889-143.950801-19.042889l-2.510498 0c-51.605212 0-99.830315 6.457422-143.948803 19.042889C378.739918 70.379451 438.086082 34.481789 508.78215 34.481789L508.78215 34.481789zM513.459179 989.548254c-0.26582-0.009793-0.993526-0.009793-1.257348-0.009793-190.017568 0-322.731988-135.872279-322.731988-330.726967l-0.349763-18.541429c-0.237639-7.944614 0.995325-30.26548 2.318428-51.66697 103.587967-36.645155 146.599006-141.938166 148.479731-146.668958 3.339536-8.404502-0.745495-17.914054-9.147798-21.275775-8.43648-3.375511-17.932042 0.735901-21.303956 9.123814-0.419715 1.031301-40.584684 98.581562-132.62608 129.150636-2.658398-1.840952-20.91402-20.543871-45.493356-14.048275 0.015989-1.317107 0.027781-2.624421 0.055762-3.969109-2.422158-119.084061 32.082448-218.560416 99.80853-287.663964 65.333904-66.673196 160.881522-101.919099 276.291674-101.919099l1.203184 0.022185 0 0 0.307991 19.224566 1.324902-0.021785-0.303794-19.224766c115.445928 0 210.997544 35.246103 276.323253 101.919099 67.716488 69.103548 102.233086 168.579903 99.796738 288.309126 0.021785 0.935366 0.031978 1.844749 0.041772 2.770322-34.658502 0-40.600673 30.757347-40.286686 32.024288-0.137707 0.623377-0.271616 1.256948-0.379743 1.892517-0.851423 4.782757-1.808574 17.406199-2.769922 33.253654-0.585603 0.473479-1.123039 1.00332-1.640688 1.558743-50.0005-49.324358-115.232472-63.146986-178.561735-76.569886-33.14153-7.023438-67.406299-14.280518-99.708598-26.524217-114.704231-43.512698-177.999716-147.406259-178.641281-148.453948-4.644851-7.75834-14.688042-10.288824-22.474562-5.657964-7.760738 4.640654-10.299217 14.700233-5.666158 22.466768 2.775918 4.657043 69.476695 114.636277 195.14809 162.308355 34.664298 13.149285 70.196607 20.673783 104.545118 27.943254 68.909479 14.597903 134.003745 28.39295 178.353676 85.959719 0.463686 0.603791 0.979336 1.155417 1.509177 1.679261-0.068354 2.903831-0.068354 2.909827-0.068354 2.909827 0 21.45965-1.6227 42.205784-4.746782 62.139869-57.021539 91.096836-151.617603 150.786367-268.800153 163.649646-8.736277-11.528184-26.532011-19.476595-47.192204-19.476595-29.312126 0-53.098 15.865044-53.098 35.388207 0 19.562537 23.785873 35.394003 53.098 35.394003 26.266192 0 47.90572-12.781534 52.118863-29.499999 37.80257-4.343055 73.839737-13.379129 107.621233-27.021879 48.261479-19.488787 90.788845-47.881536 126.390507-84.386986 5.700335-5.838242 11.170626-11.882144 16.461039-18.083739C774.974471 906.45659 661.544977 989.538661 513.459179 989.548254L513.459179 989.548254z" p-id="1569" fill="#707070"></path></svg>