<?xml version="1.0" standalone="no"?><!DOCTYPE svg PUBLIC "-//W3C//DTD SVG 1.1//EN" "http://www.w3.org/Graphics/SVG/1.1/DTD/svg11.dtd"><svg t="1567037345849" class="icon" viewBox="0 0 1024 1024" version="1.1" xmlns="http://www.w3.org/2000/svg" p-id="3726" xmlns:xlink="http://www.w3.org/1999/xlink" width="200" height="200"><defs><style type="text/css"></style></defs><path d="M839.78836 114.981775C742.26455 49.965902 623.068783 25.885949 504.475015 46.955908c-15.651969 3.009994-25.885949 17.457966-22.875955 33.109935 1.203998 7.223986 5.417989 13.845973 11.437978 18.661964 6.019988 4.213992 13.845973 6.019988 21.069959 4.815991 104.145797-18.059965 208.893592 2.407995 294.377425 59.597884 85.483833 56.587889 141.469724 141.469724 158.92769 238.993533 2.407995 13.845973 14.447972 23.477954 28.293945 23.477954 1.805996 0 3.009994 0 4.815991-0.601999 15.651969-3.009994 25.885949-17.457966 22.875955-33.109935C1003.53204 278.123457 938.516167 179.997648 839.78836 114.981775z" p-id="3727" fill="#707070"></path><path d="M530.360964 245.013521c60.801881-10.835979 121.603762 1.203998 171.569665 34.313933 49.363904 32.507937 81.87184 81.87184 92.10582 138.45973 2.407995 13.845973 14.447972 23.477954 28.293945 23.477954 1.805996 0 3.009994 0 4.815991-0.601999 15.651969-3.009994 25.885949-17.457966 22.875955-33.109935-12.641975-72.239859-54.179894-134.847737-116.787772-175.783657-62.005879-40.93592-137.857731-56.587889-212.505585-43.343915-15.651969 3.009994-25.885949 17.457966-22.875955 33.109935C500.261023 237.187537 514.708995 248.023516 530.360964 245.013521z" p-id="3728" fill="#707070"></path><path d="M886.744268 676.646678c-30.70194-21.671958-62.607878-41.537919-90.901822-55.985891-45.751911-24.079953-66.219871-27.089947-77.05585-27.089947-23.477954 0-43.945914 12.039976-60.199882 36.119929-10.23398 15.049971-18.059965 32.507937-25.283951 49.363904-3.611993 7.825985-9.631981 22.875955-14.447972 30.70194-9.029982-3.009994-30.70194-12.039976-69.229865-38.527925-37.925926-25.885949-79.463845-59.597884-110.767784-90.299824-30.70194-31.303939-64.413874-72.841858-90.299824-111.369782-26.487948-39.129924-35.517931-60.199882-38.527925-69.229865 7.825985-4.815991 22.273956-10.835979 31.303939-15.049971 16.855967-7.223986 34.313933-15.049971 48.761905-25.283951 23.477954-16.253968 35.517931-36.721928 35.517931-60.199882 0-11.437978-3.009994-31.303939-27.089947-77.657848-14.447972-27.691946-34.313933-60.199882-55.985891-90.901822-16.253968-22.875955-40.333921-55.985891-66.219871-82.473839-30.099941-31.303939-52.975897-45.149912-75.249853-45.149912-51.1699 0-107.155791 68.025867-129.429747 96.921811C50.567901 130.031746 0 204.6796 0 275.715461c0 66.219871 43.343915 151.101705 80.065844 210.699588 48.761905 78.861846 115.583774 164.345679 189.027631 239.595532l24.079953 24.079953c75.249853 73.443857 160.131687 140.867725 238.993533 189.62963 59.597884 36.721928 143.877719 80.065844 210.09759 80.065844 71.035861 0 145.683715-50.567901 174.579659-72.239859 28.895944-21.671958 96.921811-78.259847 96.921811-129.429747 0-22.273956-13.845973-45.751911-45.149912-75.851852C942.730159 717.582598 909.620223 692.900647 886.744268 676.646678zM267.889477 340.129336c-22.273956 15.049971-33.109935 33.109935-32.507937 54.781893 0 9.631981 1.203998 39.129924 52.975897 115.583774 28.293945 41.537919 65.015873 87.28983 99.329806 122.205761 34.313933 33.109935 79.463845 70.433862 121.001764 98.727807 76.453851 52.373898 105.951793 52.975897 116.787772 52.975897 21.069959 0 39.129924-11.437978 53.577895-33.109935 8.427984-12.641975 15.651969-28.895944 21.671958-43.945914 4.815991-11.437978 10.23398-23.477954 15.049971-31.905938 2.407995-4.213992 4.213992-6.621987 5.417989-7.825985 5.417989 1.203998 17.457966 5.417989 40.333921 17.457966 23.477954 12.641975 51.771899 29.497942 78.259847 48.159906 66.219871 45.751911 93.911817 77.05585 100.533804 87.28983-1.805996 3.611993-6.019988 11.437978-16.253968 23.477954-13.243974 15.651969-32.507937 32.507937-52.975897 48.159906-46.955908 34.915932-95.115814 55.383892-128.22575 55.383892-37.925926 0-100.533804-25.283951-171.569665-69.229865-74.045855-45.751911-154.713698-109.563786-226.351558-179.39565l-22.875955-23.477954c-69.831864-71.63786-133.643739-152.305703-179.39565-226.953557-43.945914-71.63786-69.229865-134.245738-69.229865-172.171664 0-33.711934 20.46796-81.269841 55.383892-128.827748 15.049971-21.069959 32.507937-39.731922 47.557907-52.975897 12.039976-10.23398 19.865961-15.049971 23.477954-16.253968 10.23398 6.621987 41.537919 34.313933 87.28983 100.533804 18.661964 27.089947 35.517931 55.383892 48.159906 78.861846 12.039976 22.875955 16.253968 34.915932 17.457966 40.333921-1.203998 1.203998-3.611993 3.009994-7.825985 5.417989-9.029982 5.417989-21.069959 10.835979-33.109935 15.651969C296.183422 325.079365 281.133451 331.701352 267.889477 340.129336z" p-id="3729" fill="#707070"></path><path d="M508.689006 382.269253c6.019988 4.213992 13.845973 6.019988 21.069959 4.815991 30.70194-5.417989 61.40388 0.601999 86.687831 17.457966 24.681952 16.253968 40.93592 40.93592 45.751911 69.229865 2.407995 13.845973 14.447972 23.477954 27.691946 23.477954 1.805996 0 3.611993 0 4.815991-0.601999 15.651969-3.009994 25.885949-17.457966 22.875955-33.109935-7.825985-43.945914-33.109935-81.87184-71.035861-106.553792-37.323927-24.681952-83.075838-34.313933-128.22575-25.885949-15.651969 3.009994-25.885949 17.457966-22.875955 33.109935C498.455026 371.433275 502.669018 378.055262 508.689006 382.269253z" p-id="3730" fill="#707070"></path></svg>