<?xml version="1.0" standalone="no"?><!DOCTYPE svg PUBLIC "-//W3C//DTD SVG 1.1//EN" "http://www.w3.org/Graphics/SVG/1.1/DTD/svg11.dtd"><svg t="1566953237682" class="icon" viewBox="0 0 1024 1024" version="1.1" xmlns="http://www.w3.org/2000/svg" p-id="14830" xmlns:xlink="http://www.w3.org/1999/xlink" width="200" height="200"><defs><style type="text/css"></style></defs><path d="M987.428571 841.142857H36.571429a18.285714 18.285714 0 0 1-18.285715-18.285714v-621.714286A18.285714 18.285714 0 0 1 36.571429 182.857143h950.857142a18.285714 18.285714 0 0 1 18.285715 18.285714v621.714286a18.285714 18.285714 0 0 1-18.285715 18.285714zM54.857143 804.571429h914.285714V219.428571h-914.285714z" p-id="14831"></path><path d="M658.285714 768a54.857143 54.857143 0 1 1 54.857143-54.857143A54.857143 54.857143 0 0 1 658.285714 768z m0-73.142857a18.285714 18.285714 0 1 0 18.285715 18.285714 18.285714 18.285714 0 0 0-18.285715-18.285714zM365.714286 768a54.857143 54.857143 0 1 1 54.857143-54.857143A54.857143 54.857143 0 0 1 365.714286 768z m0-73.142857a18.285714 18.285714 0 1 0 18.285714 18.285714 18.285714 18.285714 0 0 0-18.285714-18.285714z" p-id="14832"></path><path d="M512 713.142857m-54.857143 0a54.857143 54.857143 0 1 0 109.714286 0 54.857143 54.857143 0 1 0-109.714286 0Z" p-id="14833"></path></svg>