<?xml version="1.0" standalone="no"?><!DOCTYPE svg PUBLIC "-//W3C//DTD SVG 1.1//EN" "http://www.w3.org/Graphics/SVG/1.1/DTD/svg11.dtd"><svg t="1566829776712" class="icon" viewBox="0 0 1024 1024" version="1.1" xmlns="http://www.w3.org/2000/svg" p-id="3419" xmlns:xlink="http://www.w3.org/1999/xlink" width="200" height="200"><defs><style type="text/css"></style></defs><path d="M667.27936 113.93024 266.57792 113.93024c-26.90048 0-48.81408 21.92384-48.81408 48.82432l0 698.50112c0 26.9312 21.9136 48.82432 48.81408 48.82432l490.82368 0c26.9312 0 48.82432-21.89312 48.82432-48.82432L806.22592 264.89856 667.27936 113.93024zM678.79936 186.99264l60.90752 66.18112-60.90752 0L678.79936 186.99264zM765.22496 861.24544c0 4.31104-3.52256 7.8336-7.8336 7.8336L266.57792 869.07904c-4.31104 0-7.81312-3.52256-7.81312-7.8336L258.7648 162.75456c0-4.31104 3.50208-7.80288 7.81312-7.80288l371.21024 0 0 118.7328c0 11.30496 9.20576 20.46976 20.51072 20.46976l106.92608 0L765.22496 861.24544zM331.08992 331.99104l348.16 0c8.47872 0 15.36 6.88128 15.36 15.36s-6.88128 15.36-15.36 15.36l-348.16 0c-8.47872 0-15.36-6.88128-15.36-15.36S322.6112 331.99104 331.08992 331.99104zM694.60992 450.57024c0 8.47872-6.88128 15.36-15.36 15.36l-348.16 0c-8.47872 0-15.36-6.88128-15.36-15.36s6.88128-15.36 15.36-15.36l348.16 0C687.72864 435.21024 694.60992 442.09152 694.60992 450.57024zM694.60992 550.41024c0 8.47872-6.88128 15.36-15.36 15.36l-348.16 0c-8.47872 0-15.36-6.88128-15.36-15.36s6.88128-15.36 15.36-15.36l348.16 0C687.72864 535.05024 694.60992 541.93152 694.60992 550.41024zM694.60992 651.95008c0 8.47872-6.88128 15.36-15.36 15.36l-348.16 0c-8.47872 0-15.36-6.88128-15.36-15.36s6.88128-15.36 15.36-15.36l348.16 0C687.72864 636.59008 694.60992 643.47136 694.60992 651.95008z" p-id="3420" fill="#cdcdcd"></path></svg>