<?xml version="1.0" standalone="no"?><!DOCTYPE svg PUBLIC "-//W3C//DTD SVG 1.1//EN" "http://www.w3.org/Graphics/SVG/1.1/DTD/svg11.dtd"><svg t="1566953340564" class="icon" viewBox="0 0 1024 1024" version="1.1" xmlns="http://www.w3.org/2000/svg" p-id="16374" xmlns:xlink="http://www.w3.org/1999/xlink" width="200" height="200"><defs><style type="text/css"></style></defs><path d="M892.841564 974.022749 131.158436 974.022749c-44.277203 0-80.177279-35.897581-80.177279-80.173994L50.981157 132.197858c0-44.275389 35.900076-80.173994 80.177279-80.173994l761.683128 0c44.278227 0 80.177279 35.898605 80.177279 80.173994l0 761.65192C973.01782 938.125167 937.118767 974.022749 892.841564 974.022749zM171.247076 92.110861l-40.08864 0c-22.13809 0-40.08864 17.949814-40.08864 40.086997l0 120.260991 80.177279 0L171.247076 92.110861zM171.247076 292.544823 91.069797 292.544823l0 200.434985 80.177279 0L171.247076 292.544823zM171.247076 533.066805 91.069797 533.066805l0 200.434985 80.177279 0L171.247076 533.066805zM171.247076 773.588787 91.069797 773.588787l0 120.259968c0 22.138206 17.950549 40.086997 40.08864 40.086997l40.08864 0L171.247076 773.588787zM812.664285 533.066805l0-40.086997 0-200.434985 0-40.086997L812.664285 92.110861 211.335715 92.110861l0 160.347988 0 40.086997 0 200.434985 0 40.086997 0 200.434985 0 40.086997 0 160.346965 601.32857 0L812.664285 773.588787l0-40.086997L812.664285 533.066805zM932.930203 132.197858c0-22.137183-17.949526-40.086997-40.08864-40.086997l-40.08864 0 0 160.347988 80.177279 0L932.930203 132.197858zM932.930203 292.544823l-80.177279 0 0 200.434985 80.177279 0L932.930203 292.544823zM932.930203 533.066805l-80.177279 0 0 200.434985 80.177279 0L932.930203 533.066805zM932.930203 773.588787l-80.177279 0 0 160.346965 40.08864 0c22.139113 0 40.08864-17.948791 40.08864-40.086997L932.930203 773.588787zM385.95984 687.306678c-7.829637 7.829316-20.494593 7.829316-28.304786 0-3.876443-3.875261-5.794197-8.965186-5.833084-14.034645l-0.176016 0.098237L351.645954 353.301582l0.509627 0c-0.274257-5.460362 1.487948-11.000542 5.657068-15.178701 7.829637-7.839549 20.494593-7.839549 28.304786 0l280.561123 159.692049c3.758758 3.767813 5.871972 8.866948 5.871972 14.19121s-2.113214 10.432607-5.871972 14.19121L385.95984 687.306678zM393.731145 389.640208l0.195459 4.883217-2.07535 0 0 244.397243L610.850824 513.218758 393.731145 389.640208z" p-id="16375"></path></svg>