<svg xmlns="http://www.w3.org/2000/svg" xmlns:xlink="http://www.w3.org/1999/xlink" preserveAspectRatio="xMidYMid" width="404" height="756" viewBox="0 0 404 756">
  <defs>
    <style>
      .cls-1 {
        fill: #f5f7fd;
      }

      .cls-2 {
        fill: #dcdcdc;
        fill-rule: evenodd;
      }

      .cls-3 {
        fill: #fff;
      }
    </style>
  </defs>
  <g>
    <rect width="404" height="756" rx="44" ry="44" class="cls-1"/>
    <path d="M232.000,27.500 L188.000,27.500 C186.895,27.500 186.000,26.605 186.000,25.500 C186.000,24.395 186.895,23.500 188.000,23.500 L232.000,23.500 C233.105,23.500 234.000,24.395 234.000,25.500 C234.000,26.605 233.105,27.500 232.000,27.500 ZM171.000,29.500 C168.791,29.500 167.000,27.709 167.000,25.500 C167.000,23.291 168.791,21.500 171.000,21.500 C173.209,21.500 175.000,23.291 175.000,25.500 C175.000,27.709 173.209,29.500 171.000,29.500 Z" class="cls-2"/>
    <rect x="14" y="44.5" width="377" height="669" class="cls-3"/>
  </g>
</svg>
