<?xml version="1.0" standalone="no"?><!DOCTYPE svg PUBLIC "-//W3C//DTD SVG 1.1//EN" "http://www.w3.org/Graphics/SVG/1.1/DTD/svg11.dtd"><svg t="1566638542903" class="icon" viewBox="0 0 1024 1024" version="1.1" xmlns="http://www.w3.org/2000/svg" p-id="1155" xmlns:xlink="http://www.w3.org/1999/xlink" width="200" height="200"><defs><style type="text/css"></style></defs><path d="M706.709504 923.947008c-53.997568 0-124.09856-36.25984-173.268992-66.885632-66.076672-40.306688-136.998912-96.698368-200.660992-157.94176l-20.14208-20.158464c-61.247488-63.66208-117.661696-134.600704-157.960192-200.67328-30.623744-49.156096-66.881536-119.273472-66.881536-173.2608 0-58.025984 41.908224-120.076288 59.635712-144.257024 13.70112-18.532352 62.857216-78.974976 103.960576-78.974976 16.922624 0 35.454976 11.286528 59.63776 36.25984 20.946944 21.766144 41.089024 49.168384 54.790144 68.5056 17.727488 25.792512 34.664448 52.3776 46.739456 75.753472 20.158464 37.064704 21.766144 53.194752 21.766144 62.050304 0 17.727488-8.871936 33.845248-27.40224 45.93664-12.091392 8.871936-26.595328 14.505984-40.298496 20.959232-9.660416 4.026368-24.971264 10.469376-30.623744 15.314944 2.41664 8.050688 10.481664 29.011968 34.6624 63.660032 21.753856 32.231424 50.765824 67.684352 76.556288 94.285824 26.585088 25.790464 61.247488 53.997568 94.271488 76.57472 34.676736 23.351296 55.609344 32.23552 63.690752 34.650112 4.831232-5.64224 11.272192-20.965376 15.29856-30.625792 5.634048-13.71136 12.075008-28.209152 20.959232-40.312832 12.075008-18.520064 27.40224-28.207104 45.922304-28.207104 8.884224 0 24.182784 2.441216 62.050304 22.571008 23.379968 12.105728 49.975296 29.007872 75.769856 46.75584 19.32288 12.877824 46.723072 33.839104 68.487168 54.802432 24.987648 24.154112 36.25984 42.698752 36.25984 59.635712 0 41.091072-61.241344 90.261504-79.75936 103.948288C826.791936 882.051072 764.737536 923.947008 706.709504 923.947008L706.709504 923.947008 706.709504 923.947008zM367.429632 663.631872c61.24544 58.836992 128.946176 112.83456 191.803392 151.506944 61.247488 37.095424 114.444288 58.834944 147.478528 58.834944 29.018112 0 70.909952-17.713152 111.224832-47.527936 18.518016-12.914688 34.650112-28.207104 45.922304-41.119744 11.298816-12.88192 14.52032-20.932608 16.130048-24.15616-4.831232-8.884224-29.816832-37.091328-87.844864-77.37344-22.571008-16.130048-46.751744-30.625792-66.881536-41.089024-24.9856-12.908544-35.479552-15.32928-37.89824-16.136192-0.80896 0.806912-3.219456 3.227648-8.054784 10.469376-4.022272 7.274496-8.855552 17.739776-12.879872 28.2112-5.666816 12.101632-11.298816 24.981504-17.741824 35.477504-11.268096 16.101376-24.9856 24.958976-40.286208 24.958976-0.804864 0-0.804864 0-0.804864 0-8.07936 0-31.428608-0.804864-94.283776-43.501568-34.6624-24.184832-72.546304-54.810624-100.755456-82.210816l-0.804864-0.804864c-27.40224-28.207104-58.830848-66.07872-82.194432-100.726784-42.713088-63.66208-43.52-86.235136-43.52-94.30016-0.804864-16.115712 8.050688-29.802496 24.987648-41.089024 10.467328-6.453248 23.363584-12.091392 35.454976-17.727488 10.479616-4.040704 20.946944-8.869888 28.207104-13.70112 7.245824-4.038656 9.660416-6.455296 10.46528-7.26016-0.804864-2.414592-3.221504-12.896256-16.115712-38.672384-10.469376-19.3536-24.973312-43.52-41.091072-66.091008-40.298496-58.830848-68.5056-83.806208-77.361152-87.844864-3.23584 0.804864-11.286528 4.84352-24.182784 16.11776-13.70112 11.28448-28.207104 27.40224-41.10336 45.129728-29.81888 41.10336-47.546368 82.20672-47.546368 112.0256 0 32.233472 21.766144 86.233088 58.832896 147.480576 38.68672 62.84288 92.674048 130.555904 151.504896 191.000576L367.429632 663.631872 367.429632 663.631872z" p-id="1156" fill="#1296db"></path><path d="M664.014848 484.74112c-8.884224 0-16.93696-5.648384-18.546688-14.505984-4.028416-25.792512-18.550784-47.546368-41.089024-62.050304-22.573056-15.310848-49.975296-20.156416-77.379584-15.310848-9.660416 1.609728-19.335168-4.845568-20.946944-15.312896-1.622016-9.6768 4.831232-19.351552 14.508032-20.959232 37.062656-6.443008 74.12736 0.804864 103.944192 20.959232 30.625792 20.14208 50.782208 50.765824 57.22112 86.2208 1.609728 9.6768-4.831232 19.351552-14.493696 20.959232C665.624576 484.74112 664.817664 484.74112 664.014848 484.74112L664.014848 484.74112z" p-id="1157" fill="#1296db"></path><path d="M773.595136 438.001664c-8.8576 0-16.908288-6.455296-18.518016-15.312896-8.07936-49.168384-37.091328-91.062272-79.792128-120.07424-42.729472-28.209152-95.895552-38.688768-148.287488-29.81888-9.660416 2.414592-19.335168-4.84352-20.946944-14.505984-1.622016-9.6768 4.831232-19.351552 14.508032-20.96128 62.052352-11.272192 124.104704 1.609728 174.87872 35.467264 51.560448 33.841152 85.405696 84.609024 95.899648 143.439872 1.60768 10.479616-4.83328 19.349504-14.524416 21.766144C775.206912 438.001664 774.4 438.001664 773.595136 438.001664L773.595136 438.001664z" p-id="1158" fill="#1296db"></path><path d="M919.461888 424.302592c-8.050688 0-16.130048-6.457344-17.737728-15.312896-14.4896-83.818496-62.857216-156.350464-136.18176-203.894784-73.347072-48.351232-162.801664-66.883584-251.424768-50.767872-10.496 1.613824-19.351552-4.829184-21.768192-15.310848-1.609728-9.6768 5.638144-19.337216 15.312896-20.96128 98.322432-16.922624 196.632576 2.428928 278.034432 56.416256 81.375232 53.999616 135.380992 134.58432 152.30976 228.868096 1.613824 9.674752-4.85376 19.349504-15.31904 20.96128C921.882624 424.302592 921.07776 424.302592 919.461888 424.302592L919.461888 424.302592z" p-id="1159" fill="#1296db"></path></svg>